<svg width="16" height="16" viewBox="0 0 16 16" fill="none" xmlns="http://www.w3.org/2000/svg">
<path d="M12.7345 1C12.0496 1 11.4839 1.5494 11.4839 2.21446C11.4839 2.51807 11.603 2.80723 11.7965 3.0241L9.05707 5.68434C8.77419 5.43855 8.41687 5.29398 8 5.29398C7.59801 5.29398 7.22581 5.43855 6.94293 5.68434L5.00744 3.80482C5.14144 3.64578 5.23077 3.44337 5.23077 3.22651C5.23077 2.73494 4.8139 2.33012 4.30769 2.33012C3.80149 2.33012 3.38462 2.73494 3.38462 3.22651C3.38462 3.71807 3.80149 4.12289 4.30769 4.12289C4.53102 4.12289 4.73945 4.03614 4.90323 3.90602L6.83871 5.78554C6.58561 6.06024 6.43672 6.40723 6.43672 6.81205C6.43672 7.20241 6.58561 7.56386 6.83871 7.83855L4.08437 10.4988C3.86104 10.3108 3.57816 10.1952 3.25062 10.1952C2.56576 10.1952 2 10.7446 2 11.4096C2 12.0747 2.56576 12.6241 3.25062 12.6241C3.93548 12.6241 4.50124 12.0747 4.50124 11.4096C4.50124 11.106 4.38213 10.8169 4.18859 10.6L6.94293 7.9253C7.19603 8.15663 7.53846 8.3012 7.92556 8.31566V11.2072C7.44913 11.2506 7.07692 11.6265 7.07692 12.1036C7.07692 12.5952 7.4938 13 8 13C8.5062 13 8.92308 12.5952 8.92308 12.1036C8.92308 11.6265 8.55087 11.2506 8.07444 11.2072V8.31566C8.44665 8.3012 8.78908 8.15663 9.05707 7.9253L10.933 9.74699C10.7841 9.92048 10.6948 10.1373 10.6948 10.3831C10.6948 10.9181 11.1414 11.3518 11.6923 11.3518C12.2432 11.3518 12.6898 10.9181 12.6898 10.3831C12.6898 9.84819 12.2432 9.41446 11.6923 9.41446C11.4392 9.41446 11.2159 9.5012 11.0372 9.64578L9.16129 7.8241C9.41439 7.5494 9.56327 7.20241 9.56327 6.79759C9.56327 6.39277 9.41439 6.04578 9.16129 5.77108L11.9156 3.09639C12.139 3.28434 12.4218 3.4 12.7494 3.4C13.4342 3.4 14 2.8506 14 2.18554C13.9851 1.53494 13.4194 1 12.7345 1Z" fill="black"/>
</svg>
