<svg width="64" height="64" viewBox="0 0 64 64" fill="none" xmlns="http://www.w3.org/2000/svg">
<path d="M15.988 15.2382C15.988 10.6029 19.7456 6.84531 24.3809 6.84531H41.3708L55.6309 21.4675V48.762C55.6309 53.3972 51.8733 57.1548 47.238 57.1548H24.3809C19.7457 57.1548 15.988 53.3972 15.988 48.762V15.2382Z" stroke="#E4E6EB" stroke-width="1.5"/>
<rect x="7.61902" y="29.7144" width="42.6667" height="18.2857" rx="3.04762" fill="#6133DE"/>
<path d="M20.0151 42.8572V35.5845H22.6074C23.1732 35.5845 23.642 35.6875 24.0136 35.8935C24.3853 36.0994 24.6635 36.3811 24.8482 36.7386C25.0328 37.0937 25.1252 37.4938 25.1252 37.9389C25.1252 38.3864 25.0316 38.7888 24.8446 39.1463C24.66 39.5014 24.3806 39.7831 24.0065 39.9915C23.6349 40.1974 23.1673 40.3004 22.6038 40.3004H20.8212V39.37H22.5044C22.8619 39.37 23.1519 39.3085 23.3744 39.1854C23.597 39.0599 23.7603 38.8894 23.8645 38.674C23.9687 38.4586 24.0208 38.2135 24.0208 37.9389C24.0208 37.6643 23.9687 37.4204 23.8645 37.2074C23.7603 36.9943 23.5958 36.8274 23.3709 36.7067C23.1484 36.5859 22.8548 36.5256 22.4902 36.5256H21.1124V42.8572H20.0151ZM28.766 42.8572H26.4116V35.5845H28.8405C29.5531 35.5845 30.1651 35.7301 30.6765 36.0213C31.1878 36.3101 31.5796 36.7256 31.8519 37.2678C32.1265 37.8075 32.2638 38.455 32.2638 39.2102C32.2638 39.9678 32.1253 40.6188 31.8483 41.1633C31.5737 41.7079 31.176 42.1269 30.6552 42.4204C30.1343 42.7116 29.5046 42.8572 28.766 42.8572ZM27.5089 41.8984H28.7056C29.2596 41.8984 29.72 41.7943 30.087 41.5859C30.4539 41.3752 30.7286 41.071 30.9108 40.6733C31.0931 40.2732 31.1843 39.7855 31.1843 39.2102C31.1843 38.6397 31.0931 38.1555 30.9108 37.7578C30.7309 37.3601 30.4622 37.0582 30.1047 36.8523C29.7473 36.6463 29.3034 36.5433 28.7731 36.5433H27.5089V41.8984ZM33.6284 42.8572V35.5845H38.1383V36.5291H34.7257V38.745H37.8151V39.6861H34.7257V42.8572H33.6284Z" fill="white"/>
</svg>
