<svg width="100%" height="100%" viewBox="0 0 48 48" fill="none" xmlns="http://www.w3.org/2000/svg" fit="" preserveAspectRatio="xMidYMid meet" focusable="false">
  <defs>
    <radialGradient id="grad_upload" cx="0%" cy="0%" r="100%" fx="0%" fy="0%">
      <stop offset="0%" stop-color="#4776e6" />
      <stop offset="100%" stop-color="#6d65e8" />
    </radialGradient>
  </defs>
  <path d="M13.5814 33.9999H14.1448C14.7654 33.9999 15.2716 33.5067 15.2716 32.902C15.2716 32.2972 14.7654 31.804 14.1448 31.804H13.5814C9.54094 31.804 6.2575 28.6045 6.2575 24.6673C6.2575 20.73 9.3055 17.7386 13.1922 17.5415C13.7335 17.5136 14.1715 17.1191 14.2507 16.6023C14.9945 11.5027 21.2423 8.20232 26.5374 8.20232C32.4417 8.20232 37.2417 12.3304 37.2417 18.084C37.2417 18.9632 37.1294 19.8403 36.9028 20.6916C36.8301 20.9833 36.8742 21.2899 37.037 21.543C37.1999 21.796 37.4595 21.9762 37.7588 22.0362C40.0696 22.5251 41.7465 24.5559 41.7465 26.8612C41.7465 29.5847 39.4709 31.8021 36.6761 31.8021H33.8592C33.2385 31.8021 32.7324 32.2953 32.7324 32.9C32.7324 33.5048 33.2386 33.998 33.8592 33.998H36.6761C40.7166 33.998 44 30.7985 44 26.8612C44 23.8976 42.0854 21.2452 39.3125 20.2027C39.4357 19.4993 39.493 18.7916 39.493 18.0775C39.493 11.1164 33.6789 5.99994 26.5352 5.99994C20.4214 5.99994 13.4366 9.68409 12.1758 15.4314C7.52789 16.0962 4 19.9927 4 24.6653C4 29.8098 8.29797 33.9979 13.5775 33.9979L13.5814 33.9999Z" style="fill: url(#grad_upload) !important;"></path>
  <path d="M24.0022 41.9999C24.6448 41.9999 25.1689 41.4782 25.1689 40.8385V27.9629L29.013 31.7897C29.2408 32.0165 29.5371 32.1322 29.8356 32.1322C30.1341 32.1322 30.4303 32.0165 30.6582 31.7897C31.1139 31.336 31.1139 30.5987 30.6582 30.1474L24.8249 24.3402C24.3691 23.8865 23.6286 23.8865 23.1751 24.3402L17.3418 30.1474C16.8861 30.601 16.8861 31.3383 17.3418 31.7897C17.7975 32.2434 18.5381 32.2434 18.9915 31.7897L22.8356 27.9629V40.8385C22.8356 41.4782 23.3597 41.9999 24.0022 41.9999Z" style="fill: url(#grad_upload) !important;"></path>
</svg>
