<svg width="24" height="24" viewBox="0 0 24 24" fill="none" xmlns="http://www.w3.org/2000/svg">
<path d="M9.25 12H13M9.25 15H13M9.25 18H13M16 18.75H18.25C18.8467 18.75 19.419 18.5129 19.841 18.091C20.2629 17.669 20.5 17.0967 20.5 16.5V6.108C20.5 4.973 19.655 4.01 18.524 3.916C18.15 3.88498 17.7756 3.85831 17.401 3.836M17.401 3.836C17.4674 4.05109 17.5001 4.27491 17.5 4.5C17.5 4.69891 17.421 4.88968 17.2803 5.03033C17.1397 5.17098 16.9489 5.25 16.75 5.25H12.25C11.836 5.25 11.5 4.914 11.5 4.5C11.5 4.269 11.535 4.046 11.6 3.836M17.401 3.836C17.118 2.918 16.262 2.25 15.25 2.25H13.75C13.2692 2.25011 12.8011 2.40414 12.4143 2.68954C12.0274 2.97493 11.742 3.3767 11.6 3.836M11.6 3.836C11.224 3.859 10.85 3.886 10.476 3.916C9.345 4.01 8.5 4.973 8.5 6.108V8.25M8.5 8.25H5.125C4.504 8.25 4 8.754 4 9.375V20.625C4 21.246 4.504 21.75 5.125 21.75H14.875C15.496 21.75 16 21.246 16 20.625V9.375C16 8.754 15.496 8.25 14.875 8.25H8.5ZM7 12H7.008V12.008H7V12ZM7 15H7.008V15.008H7V15ZM7 18H7.008V18.008H7V18Z" style="stroke: url(#paint0_linear_384_2113) !important;" stroke-width="1.3" stroke-linecap="round" stroke-linejoin="round"/>
<defs>
<linearGradient id="paint0_linear_384_2113" x1="4" y1="3.33333" x2="19.4855" y2="22.5039" gradientUnits="userSpaceOnUse">
<stop stop-color="#4776E6"/>
<stop offset="1" stop-color="#8E54E9"/>
</linearGradient>
</defs>
</svg>
