<svg width="24" height="24" viewBox="0 0 24 24" fill="none" xmlns="http://www.w3.org/2000/svg">
<path fill-rule="evenodd" clip-rule="evenodd" d="M2 7C2 5.61929 3.11929 4.5 4.5 4.5H8V5.5H4.5C3.67157 5.5 3 6.17157 3 7V20.5C3 21.3284 3.67157 22 4.5 22H13.5C14.3284 22 15 21.3284 15 20.5V18.5H16V20.5C16 21.8807 14.8807 23 13.5 23H4.5C3.11929 23 2 21.8807 2 20.5V7Z" style="fill: url(#paint0_linear_383_1960) !important;"/>
<path fill-rule="evenodd" clip-rule="evenodd" d="M17.7245 0.5H10C8.61929 0.5 7.5 1.61929 7.5 3V9C7.5 9.27614 7.72386 9.5 8 9.5C8.27614 9.5 8.5 9.27614 8.5 9V3C8.5 2.17157 9.17157 1.5 10 1.5H17V4.5C17 5.32843 17.6716 6 18.5 6H21V17C21 17.8284 20.3284 18.5 19.5 18.5H10C9.17157 18.5 8.5 17.8284 8.5 17V16C8.5 15.7239 8.27614 15.5 8 15.5C7.72386 15.5 7.5 15.7239 7.5 16V17C7.5 18.3807 8.61929 19.5 10 19.5H19.5C20.8807 19.5 22 18.3807 22 17V5.3099L17.7245 0.5ZM20.3866 5H18.5C18.2239 5 18 4.77614 18 4.5V2.3151L20.3866 5Z"  style="fill: url(#paint1_linear_383_1960) !important;"/>
<path fill-rule="evenodd" clip-rule="evenodd" d="M18.875 10C18.875 9.79289 18.7071 9.625 18.5 9.625H14C13.7929 9.625 13.625 9.79289 13.625 10C13.625 10.2071 13.7929 10.375 14 10.375H18.5C18.7071 10.375 18.875 10.2071 18.875 10Z" style="fill: url(#paint2_linear_383_1960) !important;"/>
<path fill-rule="evenodd" clip-rule="evenodd" d="M14.812 8.79203C14.6971 8.6197 14.4643 8.57314 14.2919 8.68802L12.7919 9.68802C12.6876 9.75757 12.625 9.87466 12.625 10C12.625 10.1254 12.6876 10.2425 12.7919 10.3121L14.2919 11.3121C14.4643 11.4269 14.6971 11.3804 14.812 11.2081C14.9269 11.0357 14.8803 10.8029 14.708 10.688L13.676 10L14.708 9.31206C14.8803 9.19718 14.9269 8.96435 14.812 8.79203Z" style="fill: url(#paint3_linear_383_1960) !important;"/>
<path fill-rule="evenodd" clip-rule="evenodd" d="M5.625 13C5.625 12.7929 5.79289 12.625 6 12.625H10.5C10.7071 12.625 10.875 12.7929 10.875 13C10.875 13.2071 10.7071 13.375 10.5 13.375H6C5.79289 13.375 5.625 13.2071 5.625 13Z" style="fill: url(#paint4_linear_383_1960) !important;"/>
<path fill-rule="evenodd" clip-rule="evenodd" d="M9.68802 11.792C9.8029 11.6197 10.0357 11.5731 10.2081 11.688L11.7081 12.688C11.8124 12.7576 11.875 12.8747 11.875 13C11.875 13.1254 11.8124 13.2425 11.7081 13.3121L10.2081 14.3121C10.0357 14.4269 9.8029 14.3804 9.68802 14.2081C9.57314 14.0357 9.6197 13.8029 9.79203 13.688L10.824 13L9.79203 12.3121C9.6197 12.1972 9.57314 11.9644 9.68802 11.792Z"    style="fill: url(#paint5_linear_383_1960) !important;"/>
<defs>
<linearGradient id="paint0_linear_383_1960" x1="15" y1="22" x2="2.22901" y2="5.082" gradientUnits="userSpaceOnUse">
<stop stop-color="#C524FF"/>
<stop offset="1" stop-color="#1B6CFF"/>
</linearGradient>
<linearGradient id="paint1_linear_383_1960" x1="17" y1="-0.5" x2="15.7621" y2="19.9553" gradientUnits="userSpaceOnUse">
<stop offset="0.0210845" stop-color="#195CFF"/>
<stop offset="0.961915" stop-color="#C65DFC"/>
</linearGradient>
<linearGradient id="paint2_linear_383_1960" x1="18.875" y1="9.66667" x2="18.7572" y2="10.8736" gradientUnits="userSpaceOnUse">
<stop stop-color="#4776E6"/>
<stop offset="1" stop-color="#8E54E9"/>
</linearGradient>
<linearGradient id="paint3_linear_383_1960" x1="14.875" y1="8.77778" x2="12.6768" y2="11.4091" gradientUnits="userSpaceOnUse">
<stop stop-color="#4776E6"/>
<stop offset="1" stop-color="#8E54E9"/>
</linearGradient>
<linearGradient id="paint4_linear_383_1960" x1="5.625" y1="12.6667" x2="5.74285" y2="13.8736" gradientUnits="userSpaceOnUse">
<stop stop-color="#4776E6"/>
<stop offset="1" stop-color="#8E54E9"/>
</linearGradient>
<linearGradient id="paint5_linear_383_1960" x1="9.625" y1="11.7778" x2="11.8232" y2="14.4091" gradientUnits="userSpaceOnUse">
<stop stop-color="#4776E6"/>
<stop offset="1" stop-color="#8E54E9"/>
</linearGradient>
</defs>
</svg>
