
<svg width="24" height="24" viewBox="0 0 24 24" fill="none" xmlns="http://www.w3.org/2000/svg">
<path d="M19.2807 18.2191C19.3504 18.2887 19.4056 18.3715 19.4433 18.4625C19.4811 18.5536 19.5005 18.6511 19.5005 18.7497C19.5005 18.8482 19.4811 18.9458 19.4433 19.0369C19.4056 19.1279 19.3504 19.2106 19.2807 19.2803C19.211 19.35 19.1283 19.4053 19.0372 19.443C18.9462 19.4807 18.8486 19.5001 18.7501 19.5001C18.6515 19.5001 18.5539 19.4807 18.4629 19.443C18.3718 19.4053 18.2891 19.35 18.2194 19.2803L12.0001 13.06L5.78068 19.2803C5.63995 19.421 5.44907 19.5001 5.25005 19.5001C5.05103 19.5001 4.86016 19.421 4.71943 19.2803C4.5787 19.1396 4.49963 18.9487 4.49963 18.7497C4.49963 18.5507 4.5787 18.3598 4.71943 18.2191L10.9397 11.9997L4.71943 5.78031C4.5787 5.63958 4.49963 5.44871 4.49963 5.24968C4.49963 5.05066 4.5787 4.85979 4.71943 4.71906C4.86016 4.57833 5.05103 4.49927 5.25005 4.49927C5.44907 4.49927 5.63995 4.57833 5.78068 4.71906L12.0001 10.9394L18.2194 4.71906C18.3602 4.57833 18.551 4.49927 18.7501 4.49927C18.9491 4.49927 19.1399 4.57833 19.2807 4.71906C19.4214 4.85979 19.5005 5.05066 19.5005 5.24968C19.5005 5.44871 19.4214 5.63958 19.2807 5.78031L13.0604 11.9997L19.2807 18.2191Z" fill="#031B30"/>
</svg>
