<svg width="24" height="24" viewBox="0 0 24 24" fill="none" xmlns="http://www.w3.org/2000/svg">
<path d="M8.31223 9.56895H3.73623L6.65215 6.6512C7.59092 5.71241 8.76029 5.03731 10.0427 4.69375C11.3251 4.35019 12.6754 4.35029 13.9577 4.69404C15.2401 5.03779 16.4094 5.71307 17.348 6.65199C18.2866 7.59091 18.9615 8.76039 19.3049 10.0429M20.2637 19.0069V14.4309M20.2637 14.4309H15.6877M20.2637 14.4309L17.3487 17.3487C16.41 18.2875 15.2406 18.9626 13.9582 19.3061C12.6758 19.6497 11.3255 19.6496 10.0431 19.3059C8.76078 18.9621 7.59151 18.2868 6.65288 17.3479C5.71425 16.409 5.03933 15.2395 4.69598 13.957M3.73623 4.99295V9.56711" stroke="currentColor" stroke-width="1.5" stroke-linecap="round" stroke-linejoin="round"/>
</svg>
